<svg width="117" height="48" viewBox="0 0 117 48" fill="none" xmlns="http://www.w3.org/2000/svg">
<path d="M35.1867 20.6683H24.4677L33.7504 15.3367L31.9096 12.1633L22.6257 17.495L27.9841 8.26083L24.7949 6.42917L19.4354 15.661V5H15.7514V15.6622L10.3919 6.42917L7.20149 8.26083L12.5598 17.4927L3.27831 12.1633L1.43631 15.3367L10.719 20.6683H0V24.3328H10.7178L1.43631 29.6645L3.27714 32.8378L12.561 27.5062L7.20149 36.7403L10.3907 38.572L15.7514 29.339V40H19.4354V29.1103L24.8933 38.5137L27.8844 36.7963L22.4252 27.3907L31.9072 32.8367L33.7492 29.6633L24.4677 24.3317H35.1855V20.6683H35.1867V20.6683ZM17.5934 27.4817C16.9357 27.4817 16.2845 27.3529 15.6769 27.1026C15.0693 26.8523 14.5172 26.4853 14.0522 26.0226C13.5871 25.56 13.2182 25.0107 12.9664 24.4062C12.7147 23.8017 12.5851 23.1538 12.585 22.4994C12.5849 21.8451 12.7144 21.1971 12.966 20.5925C13.2176 19.9879 13.5864 19.4386 14.0513 18.9759C14.5163 18.5131 15.0683 18.146 15.6758 17.8955C16.2834 17.645 16.9346 17.5161 17.5922 17.516C18.9203 17.5158 20.1941 18.0407 21.1334 18.975C22.0726 19.9094 22.6004 21.1767 22.6005 22.4982C22.6007 23.8198 22.0732 25.0872 21.1342 26.0218C20.1952 26.9564 18.9215 27.4815 17.5934 27.4817V27.4817Z" fill="#625DF5"/>
<path d="M44.6829 35.3019V9.69824H49.4057V35.3019H44.6829V35.3019ZM89.9801 17.9022H94.4895V20.0256C95.4486 18.3281 97.6869 17.4076 99.604 17.4076C101.984 17.4076 103.901 18.4342 104.789 20.3067C106.172 18.1834 108.02 17.4076 110.329 17.4076C113.56 17.4076 116.649 19.3524 116.649 24.0202V35.3019H112.069V24.9757C112.069 23.1009 111.145 21.6857 108.978 21.6857C106.953 21.6857 105.746 23.2432 105.746 25.1181V35.3031H101.06V24.9757C101.06 23.1009 100.101 21.6857 97.9695 21.6857C95.9094 21.6857 94.7017 23.2082 94.7017 25.1181V35.3031H89.9801V17.9022V17.9022ZM60.079 35.8059C54.7582 35.8059 50.9053 31.8777 50.9053 26.6021C50.9053 21.4104 54.7465 17.3901 60.079 17.3901C65.4373 17.3901 69.2526 21.4477 69.2526 26.6021C69.2526 31.8404 65.3975 35.8059 60.079 35.8059ZM60.079 21.6484C58.7592 21.6503 57.4941 22.173 56.5612 23.1019C55.6283 24.0308 55.1038 25.29 55.1029 26.6032C55.1038 27.9165 55.6283 29.1757 56.5612 30.1046C57.4941 31.0335 58.7592 31.5562 60.079 31.5581C61.3986 31.5559 62.6634 31.033 63.596 30.1042C64.5287 29.1753 65.053 27.9163 65.0539 26.6032C65.053 25.2902 64.5287 24.0312 63.596 23.1023C62.6634 22.1734 61.3986 21.6506 60.079 21.6484V21.6484ZM79.3396 35.8059C74.0188 35.8059 70.166 31.8777 70.166 26.6021C70.166 21.4104 74.0071 17.3901 79.3396 17.3901C84.698 17.3901 88.5133 21.4477 88.5133 26.6021C88.5133 31.8404 84.6558 35.8059 79.3396 35.8059ZM79.3396 21.5889C78.0047 21.5911 76.7252 22.1199 75.7816 23.0595C74.838 23.9991 74.3073 25.2726 74.3061 26.6009C74.3073 27.9292 74.838 29.2028 75.7816 30.1423C76.7252 31.0819 78.0047 31.6107 79.3396 31.6129C80.6746 31.6107 81.9541 31.0819 82.8977 30.1423C83.8413 29.2028 84.372 27.9292 84.3732 26.6009C84.372 25.2726 83.8413 23.9991 82.8977 23.0595C81.9541 22.1199 80.6746 21.5911 79.3396 21.5889V21.5889Z" fill="#212121"/>
</svg>
