<svg width="169" height="48" viewBox="0 0 169 48" fill="none" xmlns="http://www.w3.org/2000/svg">
<path d="M166.801 20.336C167.789 21.3841 168.286 22.805 168.286 24.6053V34.0761H164.621V25.679C164.621 24.6181 164.322 23.7823 163.723 23.1715C163.123 22.5607 162.314 22.2521 161.288 22.2521C160.077 22.2714 159.114 22.6893 158.407 23.4994C157.699 24.3095 157.342 25.3511 157.342 26.6177V34.0761H153.703V13.032H157.342V21.7956C158.369 19.8088 160.172 18.7994 162.747 18.7608C164.456 18.7608 165.813 19.2816 166.801 20.336ZM145.608 22.0206C144.397 22.0206 143.409 22.4385 142.657 23.2679C141.905 24.1038 141.523 25.1775 141.523 26.502C141.523 27.8651 141.905 28.9581 142.657 29.794C143.416 30.6234 144.397 31.0413 145.615 31.0413C147.406 31.0413 148.751 30.4433 149.649 29.2539L151.918 31.157C151.249 32.1407 150.331 32.9252 149.261 33.4267C148.158 33.9539 146.883 34.2175 145.424 34.2175C143.951 34.2175 142.638 33.896 141.491 33.2531C140.363 32.6294 139.432 31.6842 138.82 30.5462C138.183 29.3825 137.864 28.0451 137.864 26.5342C137.864 25.0039 138.189 23.6473 138.833 22.4771C139.451 21.3262 140.388 20.3875 141.523 19.7574C142.67 19.1144 143.989 18.7929 145.487 18.7929C146.851 18.7929 148.069 19.0308 149.139 19.5131C150.21 19.9953 151.083 20.6832 151.759 21.5705L149.547 23.6987C148.521 22.58 147.215 22.0206 145.608 22.0206ZM135.538 18.9023V34.0761H131.898V31.665C131.382 32.4751 130.662 33.1373 129.814 33.581C128.966 34.0246 127.991 34.2496 126.889 34.2496C125.467 34.2496 124.224 33.9217 123.147 33.2724C122.076 32.623 121.235 31.7035 120.642 30.5205C120.05 29.3375 119.75 27.9808 119.75 26.4506C119.75 24.9396 120.05 23.6023 120.649 22.4385C121.242 21.2748 122.083 20.3746 123.154 19.7317C124.224 19.0887 125.461 18.7672 126.863 18.7672C127.966 18.7672 128.947 18.9923 129.801 19.4359C130.656 19.8795 131.382 20.5354 131.898 21.3519V18.9151L135.538 18.9023ZM130.579 30.0318C131.344 29.286 131.784 28.2959 131.898 27.0678V25.9941C131.784 24.7596 131.35 23.7759 130.585 23.03C129.821 22.2842 128.852 21.9113 127.673 21.9113C126.423 21.9113 125.404 22.3421 124.62 23.2036C123.836 24.0652 123.434 25.1775 123.415 26.5342C123.434 27.8972 123.836 29.0031 124.62 29.8647C125.404 30.7262 126.423 31.157 127.673 31.157C128.845 31.157 129.814 30.7841 130.579 30.0318ZM116.085 20.8568C117.29 22.2392 117.889 24.1745 117.889 26.6692C117.889 27.1578 117.876 27.5307 117.863 27.7751H106.805C107.047 28.8552 107.544 29.6975 108.303 30.3147C109.055 30.932 109.985 31.2342 111.088 31.2342C111.84 31.2342 112.592 31.0863 113.287 30.7905C113.982 30.5076 114.606 30.0769 115.123 29.5303L117.079 31.6007C116.321 32.4429 115.39 33.0988 114.345 33.5295C113.274 33.986 112.082 34.2111 110.776 34.2111C109.246 34.2111 107.895 33.8896 106.728 33.2466C105.588 32.6294 104.644 31.6842 104.026 30.5398C103.389 29.376 103.076 28.0387 103.076 26.5277C103.076 25.0168 103.395 23.673 104.045 22.5028C104.67 21.3519 105.607 20.4003 106.748 19.7638C107.908 19.108 109.221 18.7865 110.693 18.7865C113.083 18.7865 114.881 19.4809 116.085 20.8568ZM114.562 25.3125C114.524 24.1938 114.16 23.3065 113.472 22.6443C112.784 21.982 111.866 21.6477 110.725 21.6477C109.66 21.6477 108.768 21.9756 108.048 22.625C107.328 23.2744 106.888 24.1681 106.716 25.3061H114.562V25.3125ZM99.1182 19.5709C99.985 19.0501 100.998 18.7801 102.158 18.7608V22.3356C100.61 22.2392 99.3732 22.6057 98.449 23.4287C97.5248 24.2517 97.0595 25.364 97.0595 26.7592V34.0761H93.4201V18.9023H97.0595V21.8213C97.5694 20.8376 98.2514 20.0853 99.1182 19.5709ZM90.6921 33.1373C89.5002 33.8767 88.2446 34.2432 86.938 34.2432C85.6505 34.2432 84.5924 33.8574 83.7766 33.0923C82.9544 32.3272 82.5465 31.1956 82.5465 29.7039V15.3531L86.1604 14.9159V19.5195H90.4435V22.2135H86.1604V29.0546C86.1604 29.7554 86.2879 30.2505 86.5492 30.5398C86.8105 30.8355 87.1993 30.977 87.722 30.977C88.2828 30.977 88.9903 30.7712 89.8508 30.3533L90.6921 33.1373ZM75.803 18.9023H79.4169V27.4086C79.4169 32.3722 75.9942 34.2175 72.5206 34.2175C69.0469 34.2175 65.6305 32.3722 65.6305 27.4086V18.9023H69.2444V27.5372C69.2444 29.4403 70.6467 30.9834 72.5269 30.9834C74.4072 30.9834 75.8094 29.4403 75.8094 27.5372L75.803 18.9023ZM58.1414 15.3017C59.7029 16.1568 61.0032 17.4234 61.9083 18.9601C62.8261 20.5096 63.2786 22.2328 63.2786 24.1231C63.2786 26.0134 62.8197 27.7365 61.9083 29.2989C61.0032 30.8484 59.7029 32.1279 58.1414 33.0023C56.5416 33.9089 54.776 34.3654 52.832 34.3654C50.888 34.3654 49.1225 33.9089 47.5291 33.0023C45.9675 32.1279 44.6673 30.8484 43.7622 29.2989C42.8507 27.7365 42.3918 26.0134 42.3918 24.1231C42.3918 22.2328 42.8507 20.5096 43.7622 18.9601C44.6673 17.417 45.9675 16.1568 47.5291 15.3017C49.1225 14.4144 50.8944 13.9708 52.832 13.9708C54.776 13.9643 56.5479 14.408 58.1414 15.3017ZM49.5623 18.2657C48.5489 18.8444 47.7075 19.6867 47.1275 20.7025C46.5284 21.7377 46.2288 22.8757 46.2288 24.1231C46.2288 25.3704 46.5348 26.5149 47.1403 27.5565C47.7267 28.5788 48.568 29.4275 49.575 30.0254C50.5948 30.6298 51.6975 30.932 52.8958 30.932C54.0494 30.9384 55.1839 30.6234 56.1719 30.0254C57.1726 29.4275 57.9948 28.5788 58.5684 27.5565C59.1612 26.5084 59.4607 25.3254 59.448 24.1231C59.448 22.8757 59.1548 21.7377 58.5684 20.7025C58.0011 19.6931 57.1726 18.8508 56.1719 18.2657C55.1776 17.6742 54.0494 17.3656 52.8958 17.372C51.723 17.3656 50.5757 17.6742 49.5623 18.2657ZM14.9656 5.45801C20.1219 5.45801 27.9107 7.05897 31.531 10.7303C32.4488 11.6625 33.6534 13.4821 33.6534 16.1568C33.6534 20.9018 29.8738 28.1866 25.7053 32.4172C23.551 34.6033 20.1219 37.458 15.5073 37.458C10.9947 37.458 7.5529 34.359 6.55859 33.3431C2.73434 29.4725 0 23.5958 0 18.1243C0 14.6652 0.975184 11.6433 3.45457 9.1293C5.74912 6.80822 9.70722 5.45801 14.9656 5.45801ZM21.3457 24.3931C23.0857 22.6314 23.5574 20.4582 23.5574 19.2623C23.5574 18.3943 23.3343 17.1277 22.2635 16.0411C20.6255 14.3758 18.8026 13.9065 16.8267 13.9065C14.3218 13.9065 12.6391 14.7102 11.5174 15.8418C10.6378 16.7419 9.87932 18.105 9.87932 20.0531C9.87932 21.9949 10.9055 23.8723 12.0145 25.0039C13.0471 26.0455 14.666 26.8171 16.2913 26.8171C17.923 26.8171 19.6057 26.1548 21.3457 24.3931Z" fill="#5952FF"/>
</svg>
