<svg width="115" height="48" viewBox="0 0 115 48" fill="none" xmlns="http://www.w3.org/2000/svg">
<path d="M93.1001 14.56C94.5917 14.56 95.7484 13.3788 95.7484 11.8948C95.7484 10.441 94.5917 9.25983 93.1001 9.25983C91.639 9.25983 90.4214 10.441 90.4214 11.8948C90.391 13.3788 91.639 14.56 93.1001 14.56Z" fill="#2C3242"/>
<path d="M70.2705 16.4075H74.2581V18.8304C75.2626 17.3766 77.4847 16.044 80.1025 16.044C85.0641 16.044 88.8387 20.2539 88.8387 25.433C88.8387 30.5818 85.0641 34.8219 80.1025 34.8219C77.4847 34.8219 75.293 33.4893 74.2581 32.0355V41.9999H70.2705V16.4075ZM79.3719 19.6482C76.1453 19.6482 73.9233 22.1619 73.9233 25.433C73.9233 28.6737 76.1453 31.2178 79.3719 31.2178C82.5681 31.2178 84.7902 28.704 84.7902 25.433C84.7902 22.1923 82.5681 19.6482 79.3719 19.6482Z" fill="#2C3242"/>
<path d="M98.0314 16.4075H102.019V18.8607C103.115 17.0435 105.184 16.044 107.528 16.044C111.729 16.044 114.469 19.0121 114.469 23.5855V34.4585H110.481V24.2518C110.481 21.4048 109.02 19.6785 106.707 19.6785C104.058 19.6785 102.019 21.738 102.019 25.5844V34.4585H98.0314V16.4075Z" fill="#2C3242"/>
<path d="M39.8917 16.044C37.5479 16.044 35.478 17.0435 34.3822 18.8607V9.25977H30.3945V34.4585H34.3822V25.5844C34.3822 21.7379 36.4216 19.6784 39.0698 19.6784C41.3832 19.6784 42.8443 21.4048 42.8443 24.2518V34.4585H46.8319V23.5855C46.8015 19.0122 44.0923 16.044 39.8917 16.044Z" fill="#2C3242"/>
<path d="M95.0483 16.4076H91.0607V34.4586H95.0483V16.4076Z" fill="#2C3242"/>
<path d="M58.5514 34.8219C53.194 34.8219 49.0542 30.6727 49.0542 25.433C49.0542 20.1933 53.194 16.0441 58.5514 16.0441C63.9087 16.0441 68.0485 20.1933 68.0485 25.433C68.0485 30.6727 63.9087 34.8219 58.5514 34.8219ZM58.5514 31.127C61.7475 31.127 64 28.6434 64 25.433C64 22.2226 61.7475 19.7391 58.5514 19.7391C55.3248 19.7391 53.0723 22.2226 53.0723 25.433C53.0723 28.6434 55.3248 31.127 58.5514 31.127Z" fill="#2C3242"/>
<path d="M15.873 14.0869C15.8427 15.2938 14.9921 17.0135 13.5645 17.0135C12.6835 17.0135 11.9545 16.2894 11.9545 15.4144V15.3843C11.9241 13.9663 11.2862 12.7293 10.2838 11.8543C9.52434 11.2207 8.58266 10.7984 7.54985 10.6777C8.43077 9.77256 9.67622 9.22949 11.0432 9.22949C12.7746 9.22949 14.3542 10.2251 15.2655 11.6733C15.6908 12.3974 15.9034 13.2723 15.873 14.0869Z" fill="#175FFF"/>
<path d="M10.2232 14.2076C10.9825 15.173 11.4382 17.0134 10.3447 17.9185C9.646 18.4918 8.64357 18.4013 8.06641 17.7375C7.12473 16.6816 5.81853 16.1385 4.51233 16.1083C3.5099 16.0781 2.50747 16.3799 1.65692 16.9531C1.74805 15.7161 2.32521 14.4791 3.38839 13.6042C4.75534 12.4879 6.66908 12.156 8.30942 12.8197C9.06884 13.0913 9.73713 13.574 10.2232 14.2076Z" fill="#175FFF"/>
<path d="M5.97033 17.8885C7.15503 18.1299 8.73462 19.2764 8.4916 20.6642C8.33972 21.5392 7.48918 22.1124 6.60824 21.9616H6.57787C5.18054 21.7504 3.81359 22.1728 2.81116 22.9873C2.05174 23.5907 1.44421 24.4657 1.17081 25.4613C0.44177 24.4355 0.107626 23.1382 0.320264 21.7806C0.654408 20.0608 1.89985 18.6126 3.60095 18.0394C4.36036 17.798 5.21092 17.7377 5.97033 17.8885Z" fill="#175FFF"/>
<path d="M5.0894 23.4398C6.15258 22.8666 8.09669 22.7458 8.79536 23.9527C9.25101 24.707 8.97761 25.7025 8.2182 26.1551C7.00313 26.8792 6.24371 28.0558 5.97032 29.3531C5.78806 30.3186 5.87919 31.3444 6.33484 32.2797C5.11977 31.978 3.99583 31.1936 3.32755 30.017C2.44662 28.4782 2.47699 26.5775 3.3883 25.069C3.81358 24.3751 4.39073 23.8018 5.0894 23.4398Z" fill="#175FFF"/>
<path d="M8.00534 28.2369C8.46099 27.1206 9.85832 25.7931 11.1645 26.2758C12.0151 26.5775 12.4404 27.5128 12.1366 28.3275C11.6809 29.6549 11.8632 31.0427 12.5011 32.1893C12.9872 33.0642 13.7162 33.7581 14.6579 34.2106C13.5035 34.7537 12.1669 34.8745 10.8911 34.3917C9.22041 33.7882 8.00534 32.3099 7.73195 30.56C7.64082 29.7757 7.73195 28.961 8.00534 28.2369Z" fill="#175FFF"/>
<path d="M13.3518 30.047C12.957 28.9005 13.1696 26.9997 14.5061 26.517C15.3567 26.2154 16.268 26.6378 16.5718 27.4825C17.0881 28.7799 18.1209 29.7453 19.3664 30.2281C20.2777 30.59 21.3409 30.6504 22.3433 30.409C21.8269 31.5555 20.8549 32.4908 19.579 32.9736C17.9083 33.5769 15.9946 33.2149 14.6884 32.0382C14.0809 31.465 13.5949 30.8012 13.3518 30.047Z" fill="#175FFF"/>
<path d="M18.6373 28.0258C17.6045 27.3922 16.5109 25.7931 17.2399 24.5864C17.6956 23.8321 18.6677 23.5606 19.4574 23.983C20.7029 24.6467 22.1002 24.7372 23.3761 24.3148C24.3177 23.983 25.1683 23.3795 25.7758 22.5348C26.1099 23.7416 25.9884 25.0691 25.2898 26.2457C24.4089 27.7844 22.7077 28.7197 20.9459 28.6594C20.0954 28.6594 19.2752 28.4482 18.6373 28.0258Z" fill="#175FFF"/>
<path d="M21.3712 23.1078C20.1561 23.2889 18.3032 22.7457 18.0602 21.358C17.8779 20.5132 18.4854 19.6684 19.3664 19.5175H19.3967C20.794 19.246 21.918 18.4012 22.5863 17.2849C23.1027 16.4401 23.3457 15.4445 23.2546 14.4187C24.2874 15.1126 25.0771 16.2289 25.2898 17.5564C25.5936 19.2762 24.8949 21.0864 23.528 22.1725C22.8901 22.6553 22.1306 23.0173 21.3712 23.1078Z" fill="#175FFF"/>
<path d="M20.2777 17.617C19.4575 18.5221 17.6957 19.3065 16.6021 18.4014C15.9034 17.8282 15.8123 16.8325 16.3895 16.1386C17.2704 15.0525 17.6045 13.6646 17.3918 12.3673C17.24 11.4018 16.7843 10.4666 16.0553 9.7123C17.3008 9.59162 18.607 9.95366 19.6702 10.8286C21.0371 11.9449 21.675 13.7853 21.3105 15.505C21.1586 16.2895 20.794 17.0437 20.2777 17.617Z" fill="#175FFF"/>
</svg>
