<svg width="129" height="48" viewBox="0 0 129 48" fill="none" xmlns="http://www.w3.org/2000/svg">
<path d="M44.9356 34.7744V20.2194H45.1949L55.7896 34.7744H59.1236V13.4001H55.4192V27.9185H55.1598L44.5652 13.4001H41.2312V34.7744H44.9356ZM69.6071 35.1044C74.497 35.1044 77.4976 31.9514 77.4976 26.672C77.4976 21.4293 74.497 18.2396 69.6071 18.2396C64.7543 18.2396 61.7167 21.4293 61.7167 26.672C61.7537 31.9514 64.7173 35.1044 69.6071 35.1044ZM69.6071 32.0247C67.014 32.0247 65.5322 30.0816 65.5322 26.672C65.5322 23.2991 67.014 21.3193 69.6071 21.3193C72.2002 21.3193 73.682 23.2991 73.682 26.672C73.682 30.0816 72.2002 32.0247 69.6071 32.0247ZM80.8686 14.61V18.6796H78.2755V21.6126H80.8686V30.4483C80.8686 33.6012 82.3504 34.8478 86.1289 34.8478C86.8327 34.8478 87.5366 34.7744 88.0922 34.6645V31.8048C87.6477 31.8414 87.3513 31.8781 86.8327 31.8781C85.2769 31.8781 84.573 31.1815 84.573 29.5684V21.6126H88.0922V18.6796H84.573V14.61H80.8686ZM90.3149 34.7744H94.0193V18.5696H90.3149V34.7744ZM92.1671 15.8932C93.3896 15.8932 94.3898 14.9033 94.3898 13.6934C94.3898 12.4469 93.3896 11.457 92.1671 11.457C90.9446 11.457 89.9444 12.4469 89.9444 13.6934C89.9444 14.9033 90.9446 15.8932 92.1671 15.8932ZM104.169 35.1044C109.059 35.1044 112.06 31.9514 112.06 26.672C112.06 21.4293 109.059 18.2396 104.169 18.2396C99.3166 18.2396 96.279 21.4293 96.279 26.672C96.279 31.9514 99.2426 35.1044 104.169 35.1044ZM104.169 32.0247C101.576 32.0247 100.095 30.0816 100.095 26.672C100.095 23.2991 101.576 21.3193 104.169 21.3193C106.726 21.3193 108.244 23.2991 108.244 26.672C108.207 30.0816 106.726 32.0247 104.169 32.0247ZM114.245 34.7744H117.95V25.3522C117.95 22.9691 119.358 21.4659 121.543 21.4659C123.803 21.4659 124.84 22.7124 124.84 25.1688V34.7744H128.545V24.2889C128.545 20.4027 126.544 18.2396 122.914 18.2396C120.469 18.2396 118.839 19.3395 118.061 21.1726H117.802V18.5696H114.208C114.245 18.5696 114.245 34.7744 114.245 34.7744Z" fill="black"/>
<path fill-rule="evenodd" clip-rule="evenodd" d="M5.71206 12.0321C6.79023 12.9019 7.18021 12.8332 9.19893 12.6959L28.2162 11.5514C28.6291 11.5514 28.285 11.1394 28.1474 11.0936L24.9816 8.82758C24.3852 8.36979 23.5594 7.82044 22.0224 7.95778L3.62452 9.30825C2.95926 9.37692 2.82162 9.72026 3.0969 9.97205L5.71206 12.0321ZM6.85905 16.4498V36.4094C6.85905 37.4852 7.38667 37.8743 8.60249 37.8056L29.5008 36.5925C30.7166 36.5238 30.8543 35.7913 30.8543 34.9215V15.0993C30.8543 14.2295 30.5102 13.7488 29.7761 13.8175L7.93723 15.0993C7.13433 15.168 6.85905 15.58 6.85905 16.4498ZM27.4821 17.5256C27.6197 18.1207 27.4821 18.7387 26.8857 18.8074L25.8763 19.0134V33.7542C25.0046 34.212 24.2017 34.4866 23.5135 34.4866C22.4353 34.4866 22.16 34.1433 21.3571 33.1362L14.7733 22.813V32.7928L16.8609 33.2506C16.8609 33.2506 16.8609 34.4638 15.1863 34.4638L10.5524 34.7384C10.4148 34.4638 10.5524 33.8 11.0112 33.6626L12.227 33.3193V20.135L10.5524 19.9976C10.4148 19.4025 10.7589 18.5327 11.6994 18.464L16.6774 18.1207L23.5364 28.5583V19.3338L21.793 19.1278C21.6553 18.3954 22.2059 17.846 22.8712 17.7773L27.4821 17.5256ZM2.08754 7.4771L21.2424 6.08084C23.5823 5.87484 24.2017 6.01217 25.6698 7.08798L31.7719 11.3683C32.7812 12.1008 33.1253 12.3068 33.1253 13.1079V36.6154C33.1253 38.0803 32.5977 38.9501 30.7166 39.0874L8.48779 40.4379C7.06552 40.5066 6.40026 40.3006 5.66618 39.3621L1.147 33.5253C0.3441 32.4495 0 31.6484 0 30.7099V9.81182C0 8.59868 0.550559 7.61443 2.08754 7.4771Z" fill="black"/>
</svg>
